PathFileType  4	(X/Y/Z) C:\Users\antoi\Documents\MyRepositories\mobilecap\ResultsAnalysis
DataRate	CameraRate	NumFrames	NumMarkers	Units	OrigDataRate	OrigDataStartFrame	OrigNumFrames
100.0	100.0	7	51	mm	100.0	237	270
Frame#	Time	r_knee			r_shank_antsup			r_ankle			r_calc			r_5meta			r_toe			L_knee			L_shank_antsup			L_ankle			L_calc			L_5meta			L_toe			r_sh2			r_sh3			r_sh4			L_sh2			L_sh3			r_thigh1			r_thigh2			r_thigh3			r_thigh4			r_thigh5			L_thigh1			L_thigh2			L_thigh3			L_thigh4			r.ASIS			r.PSIS			L.ASIS			L.PSIS			C7			R_Shoulder			L_Shoulder			R_Sternum			L_Sternum			R_humerus			R_elbow_med			R_elbow_lat			R_forearm			R_wrist_radius			R_wrist_ulna			L_humerus			L_elbow_med			L_elbow_lat			L_forearm			L_wrist_radius			L_wrist_ulna			R_HJC			L_HJC			R_HJC_reg			L_HJC_reg			
		X1	Y1	Z1	X2	Y2	Z2	X3	Y3	Z3	X4	Y4	Z4	X5	Y5	Z5	X6	Y6	Z6	X7	Y7	Z7	X8	Y8	Z8	X9	Y9	Z9	X10	Y10	Z10	X11	Y11	Z11	X12	Y12	Z12	X13	Y13	Z13	X14	Y14	Z14	X15	Y15	Z15	X16	Y16	Z16	X17	Y17	Z17	X18	Y18	Z18	X19	Y19	Z19	X20	Y20	Z20	X21	Y21	Z21	X22	Y22	Z22	X23	Y23	Z23	X24	Y24	Z24	X25	Y25	Z25	X26	Y26	Z26	X27	Y27	Z27	X28	Y28	Z28	X29	Y29	Z29	X30	Y30	Z30	X31	Y31	Z31	X32	Y32	Z32	X33	Y33	Z33	X34	Y34	Z34	X35	Y35	Z35	X36	Y36	Z36	X37	Y37	Z37	X38	Y38	Z38	X39	Y39	Z39	X40	Y40	Z40	X41	Y41	Z41	X42	Y42	Z42	X43	Y43	Z43	X44	Y44	Z44	X45	Y45	Z45	X46	Y46	Z46	X47	Y47	Z47	X48	Y48	Z48	X49	Y49	Z49	X50	Y50	Z50	X51	Y51	Z51	

237	2.36000000	-237.25995	964.89474	-403.73336	-220.96119	883.94324	-393.59981	-300.15937	530.10923	-418.55107	-372.42025	517.13632	-468.08503	-205.02892	395.78224	-402.45084	-160.32656	412.67228	-457.76181	-254.88672	959.27575	-687.58167	-230.42149	842.66864	-704.12987	-282.69135	511.46666	-667.86334	-351.81251	491.47216	-613.47330	-163.01500	384.65591	-692.85845	-122.62113	417.89221	-641.76488	-232.09180	771.65789	-385.85156	-294.04718	891.08747	-375.47838	-313.23255	777.60110	-376.31577	-319.98297	853.86644	-700.71159	-320.71013	732.86247	-698.58150	-150.54512	1280.41355	-368.50094	-145.87736	1171.13029	-384.56755	-199.17528	1140.17205	-357.98324	-264.50780	1270.64819	-361.93562	-252.33914	1154.12494	-368.00868	-181.08444	1278.86207	-728.91395	-175.45343	1141.24457	-721.96468	-299.16830	1273.52464	-718.52088	-284.34639	1134.61661	-714.20164	-120.09347	1480.27666	-426.59628	-305.66715	1544.64699	-488.18321	-142.80698	1468.73928	-684.64501	-314.47314	1542.00634	-593.18226	-283.29335	2044.80074	-566.37281	-228.89463	2051.00074	-419.47540	-231.07437	2044.58967	-706.70302	-124.48970	1991.69518	-536.93910	-129.69929	1984.94574	-599.37213	-327.26030	1956.38975	-209.15690	-381.59929	1836.67238	-181.25647	-366.70549	1917.56541	-134.28399	-211.10426	1876.28831	-116.25775	-102.16413	1837.85052	-129.42333	-117.99404	1827.53346	-88.47493	-334.95571	1924.62542	-895.69008	-424.95887	1821.32862	-898.93668	-384.84788	1872.85721	-955.13928	-228.74667	1802.36534	-944.29983	-144.00622	1776.79749	-904.82948	-146.35319	1752.99635	-937.15543	-213.26513	1414.60458	-421.89605	-232.24645	1405.49677	-651.29987	-206.46916	1413.00224	-454.55452	-220.76866	1408.71428	-625.04371	
238	2.37000000	-235.92874	960.77146	-402.07301	-219.43674	879.92193	-391.82394	-298.21501	525.91540	-414.86988	-371.05853	512.41836	-463.51281	-202.28511	391.91493	-399.80937	-158.35667	408.81622	-455.65922	-254.37931	954.77583	-687.37536	-229.46485	838.61853	-704.58205	-281.30380	507.14147	-669.12394	-350.73393	486.92030	-615.09027	-161.28901	380.19728	-692.22677	-121.16559	414.03258	-641.78646	-230.25152	767.60729	-383.66848	-292.19903	887.17562	-372.90016	-311.42470	773.40767	-373.26265	-318.98809	849.58725	-701.90713	-319.55707	728.49747	-699.88439	-149.99327	1276.42815	-368.54394	-145.24834	1167.30605	-384.43412	-198.12791	1136.20823	-357.39305	-263.87461	1266.51396	-360.97415	-251.37294	1150.07474	-366.86335	-180.26037	1274.86556	-727.95459	-174.59323	1137.21913	-721.32785	-298.41824	1269.41121	-719.11185	-283.57868	1130.47886	-714.81066	-120.52091	1475.83330	-426.16064	-305.50457	1541.32606	-488.18269	-142.53349	1464.75825	-683.67309	-314.07423	1539.07317	-593.36928	-282.45835	2041.50905	-566.21615	-228.22807	2046.84668	-419.20935	-230.20819	2038.64511	-706.27453	-124.07132	1986.86621	-536.62540	-129.29323	1979.99111	-599.01594	-328.76174	1949.79802	-210.76324	-388.20049	1831.29246	-187.33802	-369.93093	1909.71312	-137.13581	-216.30085	1861.84468	-121.19362	-109.03121	1819.04509	-135.41810	-124.90752	1808.79836	-94.54897	-338.29003	1917.99820	-892.81258	-430.81951	1816.98065	-892.90298	-389.69163	1865.73827	-950.94496	-236.32845	1790.24249	-939.20867	-151.50058	1763.10411	-900.30943	-154.92365	1738.48883	-932.02317	-214.21899	1410.75741	-421.66462	-232.40340	1402.00870	-651.14708	-207.07003	1409.01727	-454.45339	-220.93103	1405.37428	-624.58652	
239	2.38000000	-234.55465	955.75561	-400.27555	-217.91373	874.90660	-390.00170	-296.20971	520.73769	-411.22559	-369.44594	506.69562	-459.37546	-199.67423	386.99317	-396.94056	-156.30033	403.98213	-453.15187	-253.88900	949.34690	-687.24449	-228.47021	833.59315	-704.93764	-279.81424	501.85794	-670.11016	-349.48846	481.23991	-616.68456	-159.27107	375.22097	-692.17776	-119.50145	409.33561	-641.91962	-228.35275	762.44126	-381.46966	-290.23033	882.09795	-370.43377	-309.60347	768.30232	-370.44773	-318.02363	844.28558	-703.11717	-318.25784	723.23837	-701.17470	-149.59325	1271.58750	-368.57739	-144.76518	1162.52248	-384.18725	-197.21089	1131.28566	-356.66514	-263.47135	1261.52926	-359.82530	-250.59605	1144.93011	-365.55732	-179.68415	1269.80409	-727.05745	-173.93912	1132.19912	-720.71680	-297.85439	1264.29356	-719.75094	-282.94248	1125.30006	-715.24176	-120.85031	1470.57500	-425.75329	-305.20736	1537.39958	-488.36109	-142.41011	1459.75736	-682.77942	-313.64298	1535.05590	-593.56206	-281.61558	2037.22599	-565.81968	-227.48471	2041.61037	-418.95971	-229.32369	2031.94070	-706.00410	-123.68946	1981.08673	-536.35505	-128.98583	1974.07040	-598.73260	-330.30243	1941.95935	-212.53245	-394.33451	1824.77720	-193.46134	-373.01883	1900.65731	-140.39928	-221.55524	1847.06439	-126.56114	-116.04588	1800.47053	-142.06400	-131.80766	1790.28367	-101.34549	-341.63329	1910.33350	-890.28276	-436.27149	1811.51572	-886.95432	-394.50707	1857.31407	-946.34867	-243.19419	1777.74657	-934.36406	-158.86419	1749.20661	-895.57889	-163.36111	1723.69651	-926.35656	-215.10145	1406.21511	-421.37797	-232.64763	1397.49798	-650.91141	-207.73670	1404.77044	-454.00715	-221.35237	1400.98797	-623.80259	
240	2.39000000	-233.30914	949.77693	-398.53454	-216.40052	868.87670	-388.14485	-294.02972	514.46753	-407.84074	-367.51618	500.07760	-455.68215	-197.12498	380.97670	-393.98314	-154.05403	398.06220	-450.34526	-253.24298	943.35294	-687.82613	-227.49376	827.55675	-705.09545	-278.27375	495.68445	-670.99040	-348.16950	474.46764	-618.26538	-156.99255	369.87594	-693.24192	-117.69524	403.86361	-642.39649	-226.41886	756.40853	-379.31863	-288.40851	875.79426	-368.17203	-307.64523	762.15191	-367.61616	-317.08130	838.01412	-704.27725	-317.01051	716.97632	-702.24337	-149.50258	1266.00951	-368.22843	-144.39026	1156.80302	-383.80056	-196.52547	1125.51583	-355.62731	-263.31485	1255.61725	-358.57469	-250.09059	1138.84116	-364.05145	-179.32951	1263.52618	-726.32851	-173.51602	1126.11405	-720.08799	-297.61272	1258.04869	-720.08856	-282.53511	1119.06783	-715.54763	-121.13912	1464.47717	-425.29179	-305.09102	1532.74491	-488.50255	-142.48494	1453.55476	-681.85030	-313.41112	1529.90017	-593.76362	-280.75470	2031.75774	-565.29632	-226.72901	2035.35292	-418.58361	-228.61494	2024.70429	-706.29923	-123.35815	1974.31054	-536.25058	-128.72526	1967.18350	-598.50109	-331.93526	1932.97558	-214.23665	-399.96190	1817.13957	-199.50205	-376.26022	1890.48386	-143.92738	-226.83689	1831.96670	-132.20462	-123.01322	1781.91651	-149.19419	-138.69265	1771.78867	-108.74259	-344.86476	1901.66061	-887.96447	-441.37756	1804.91275	-880.93299	-399.24756	1847.69757	-941.38030	-249.72730	1764.71369	-929.52484	-165.86120	1734.98025	-890.71202	-171.54268	1708.60130	-920.44448	-216.04191	1400.93113	-420.89800	-233.10329	1391.82788	-650.45272	-208.57465	1399.99953	-453.25650	-221.97144	1395.42052	-622.73094	
241	2.40000000	-232.38838	942.80077	-396.85341	-214.99543	861.87513	-386.24672	-291.60641	507.03865	-404.88684	-365.21676	492.52033	-452.39983	-194.51285	373.85992	-391.07125	-151.53815	390.94848	-447.40160	-252.69681	936.46651	-688.45030	-226.60883	820.51769	-705.10667	-276.68636	488.63322	-671.95124	-346.87409	466.77738	-619.75711	-154.61316	363.67161	-694.63340	-115.80346	397.52791	-643.12936	-224.64272	749.51938	-377.06138	-287.00459	868.54694	-365.91710	-305.73658	754.87255	-364.93937	-316.15856	830.77779	-705.31093	-315.80836	709.70842	-703.38702	-149.79327	1259.47738	-367.53768	-144.27349	1150.14348	-383.11186	-196.12920	1118.92063	-354.23515	-263.45681	1248.65856	-357.52988	-249.84406	1131.94655	-362.41039	-179.20629	1256.25369	-725.70860	-173.36908	1118.98205	-719.48817	-297.67402	1250.72980	-720.27585	-282.39538	1111.78707	-715.79129	-121.51057	1457.37512	-424.91431	-305.19176	1527.06406	-488.43143	-142.69297	1446.13099	-680.96107	-313.41970	1523.51394	-593.93770	-279.98172	2025.12835	-564.85037	-226.01549	2028.02965	-418.10962	-228.11541	2016.67283	-706.67908	-123.09272	1966.53564	-536.13903	-128.53564	1959.31737	-598.40976	-333.70564	1922.84771	-215.76912	-405.16547	1808.42259	-205.18578	-379.71663	1879.24806	-147.37333	-232.07792	1816.39799	-138.02497	-129.82617	1763.18386	-156.55646	-145.47761	1753.27269	-116.33433	-347.87991	1891.86343	-885.56318	-446.18021	1797.21987	-874.79688	-403.78412	1837.15052	-936.54198	-256.20154	1750.96948	-924.43062	-172.41385	1720.34211	-885.69191	-179.27547	1693.17894	-914.54912	-217.02234	1394.63092	-420.32220	-233.75745	1384.95656	-649.87769	-209.53503	1394.33317	-452.47160	-222.72449	1388.64437	-621.59253	
242	2.41000000	-231.74411	934.85108	-395.05605	-213.84387	853.92660	-384.35926	-289.00604	498.55135	-402.15073	-362.56456	483.91184	-449.38736	-191.71629	365.74124	-388.08293	-148.72626	382.80831	-444.44148	-252.38605	928.41008	-688.68583	-225.78830	812.55891	-705.22004	-275.03698	480.66155	-673.01890	-345.55158	458.31695	-621.28803	-152.18087	356.51131	-696.04342	-113.91735	390.15385	-643.94028	-223.06267	741.59561	-374.65070	-286.27146	860.71963	-363.35917	-304.06922	746.60561	-362.59515	-315.30764	822.56837	-706.15613	-314.61786	701.48211	-704.61820	-150.31470	1251.83564	-366.80958	-144.41084	1142.52170	-382.07912	-196.00127	1111.31736	-352.74402	-263.85221	1240.69834	-356.73534	-249.79684	1124.12682	-360.84501	-179.40346	1248.23360	-725.19913	-173.45747	1110.88754	-719.01962	-297.95555	1242.48700	-720.49907	-282.41246	1103.52425	-715.96968	-122.03778	1449.22608	-424.60902	-305.44236	1520.06930	-488.07450	-143.03569	1437.64858	-680.19708	-313.59400	1515.83102	-593.90721	-279.35833	2017.35385	-564.50303	-225.34060	2019.59281	-417.51882	-227.75015	2007.68293	-706.87510	-122.91298	1957.79702	-535.91996	-128.46934	1950.44567	-598.55079	-335.60194	1911.72299	-217.25402	-410.14593	1798.74263	-210.65927	-383.18000	1867.10899	-150.65257	-237.24181	1800.30596	-143.84500	-136.54290	1744.33850	-163.81313	-152.20536	1734.63408	-123.86131	-350.72960	1880.86305	-882.94386	-450.57280	1788.41911	-868.55814	-408.01668	1825.73102	-932.02255	-262.40308	1736.49204	-918.96114	-178.86697	1705.16828	-880.30769	-186.47824	1677.31701	-908.59287	-217.92968	1387.10545	-419.71886	-234.51167	1376.93727	-649.26432	-210.52623	1387.45054	-451.79235	-223.52711	1380.69124	-620.58723	
243	2.42000000	-231.20859	925.89155	-393.18869	-212.92520	844.98170	-382.46748	-286.29508	489.15567	-399.32693	-359.66666	474.22487	-446.55186	-188.57916	356.78325	-384.90843	-145.53519	373.92137	-441.42141	-252.15576	919.33016	-688.97914	-225.01278	803.71613	-705.55896	-273.32838	471.73247	-674.13517	-344.08336	449.02839	-622.86289	-149.76990	348.56274	-697.82982	-112.02158	381.68534	-644.75010	-221.55564	732.63588	-372.30770	-286.08999	852.20117	-360.66020	-302.58663	737.47140	-360.46536	-314.57329	813.38489	-706.79190	-313.50266	692.30300	-705.57405	-150.88628	1243.16398	-366.09551	-144.58796	1133.88417	-380.85507	-196.05765	1102.57031	-351.45767	-264.37734	1231.75779	-355.98747	-249.89551	1115.21186	-359.55765	-179.88875	1239.35410	-724.88392	-173.65474	1101.89543	-718.76282	-298.43045	1233.33220	-720.54405	-282.55437	1094.35539	-715.98632	-122.69835	1440.07519	-424.14535	-305.84814	1511.76915	-487.60616	-143.57350	1428.26250	-679.58327	-313.94198	1506.88540	-593.61919	-278.76858	2008.29824	-564.26126	-224.67847	2010.11776	-416.74604	-227.42281	1997.71534	-707.18195	-122.78698	1948.10458	-535.69091	-128.44848	1940.60246	-598.76422	-337.58649	1899.79166	-218.87824	-414.94620	1788.18163	-216.30265	-386.53162	1854.07455	-153.95119	-242.33233	1783.69210	-149.54109	-143.14939	1725.47465	-170.73388	-158.79094	1715.68775	-131.27181	-353.47992	1868.80202	-880.24481	-454.46963	1778.47508	-862.30141	-411.97818	1813.33048	-927.43417	-268.09958	1721.34824	-913.21730	-185.26968	1689.31308	-874.50982	-193.22428	1660.83579	-902.37190	-218.79044	1378.38491	-419.08644	-235.31531	1367.84897	-648.61933	-211.55335	1379.35396	-451.02230	-224.43006	1371.58363	-619.68329	
